<svg width="1920" height="1080" viewBox="0 0 1920 1080" fill="none" xmlns="http://www.w3.org/2000/svg">
<rect width="1920" height="1080" fill="url(#paint0_linear_2_2)"/>
<path fill-rule="evenodd" clip-rule="evenodd" d="M1097.52 88.4731C1097.52 71.091 1111.62 57 1129 57H1363.45C1380.83 57 1394.92 71.091 1394.92 88.4731C1394.92 93.3773 1393.8 98.0194 1391.8 102.157H1443.73C1461.11 102.157 1475.2 116.248 1475.2 133.63C1475.2 151.012 1461.11 165.103 1443.73 165.103H1209.28C1198.5 165.103 1188.98 159.683 1183.31 151.419H1056.47C1039.09 151.419 1025 137.328 1025 119.946C1025 102.564 1039.09 88.4731 1056.47 88.4731L1097.52 88.4731Z" fill="white" fill-opacity="0.1"/>
<path fill-rule="evenodd" clip-rule="evenodd" d="M597.171 189.017C597.171 185.142 600.312 182 604.188 182H656.463C660.338 182 663.48 185.142 663.48 189.017C663.48 190.111 663.23 191.146 662.784 192.068H674.362C678.238 192.068 681.38 195.21 681.38 199.086C681.38 202.962 678.238 206.103 674.362 206.103H622.088C619.684 206.103 617.562 204.895 616.298 203.052H588.017C584.142 203.052 581 199.91 581 196.035C581 192.159 584.142 189.017 588.017 189.017L597.171 189.017Z" fill="white" fill-opacity="0.1"/>
<path fill-rule="evenodd" clip-rule="evenodd" d="M1166.17 352.017C1166.17 348.142 1169.31 345 1173.19 345H1225.46C1229.34 345 1232.48 348.142 1232.48 352.017C1232.48 353.111 1232.23 354.146 1231.78 355.068H1243.36C1247.24 355.068 1250.38 358.21 1250.38 362.086C1250.38 365.962 1247.24 369.103 1243.36 369.103H1191.09C1188.68 369.103 1186.56 367.895 1185.3 366.052H1157.02C1153.14 366.052 1150 362.91 1150 359.035C1150 355.159 1153.14 352.017 1157.02 352.017L1166.17 352.017Z" fill="white" fill-opacity="0.1"/>
<path fill-rule="evenodd" clip-rule="evenodd" d="M790.419 90.8267C790.419 84.4948 795.553 79.3617 801.885 79.3617H887.291C893.623 79.3617 898.756 84.4948 898.756 90.8267C898.756 92.6132 898.347 94.3043 897.618 95.8115H916.535C922.867 95.8115 928 100.945 928 107.277C928 113.609 922.867 118.742 916.535 118.742H831.129C827.202 118.742 823.736 116.767 821.669 113.757H775.465C769.133 113.757 764 108.624 764 102.292C764 95.9598 769.133 90.8267 775.465 90.8267L790.419 90.8267Z" fill="white" fill-opacity="0.1"/>
<path fill-rule="evenodd" clip-rule="evenodd" d="M278.502 276.203C260.242 276.203 245.439 291.006 245.439 309.266H218.162C199.902 309.266 185.1 324.068 185.1 342.328C185.1 360.588 199.902 375.391 218.162 375.391L238 375.391C238 388.173 248.362 398.535 261.144 398.535H413.232C422.465 398.535 430.435 393.129 434.149 385.31H569.454C587.714 385.31 602.517 370.507 602.517 352.247C602.517 333.987 587.714 319.184 569.454 319.184H556.368C557.352 316.053 557.882 312.721 557.882 309.266C557.882 291.006 543.079 276.203 524.819 276.203H278.502Z" fill="white" fill-opacity="0.1"/>
<path fill-rule="evenodd" clip-rule="evenodd" d="M1691.45 165C1609.45 165 1542.97 231.475 1542.97 313.477L1420.48 313.477C1338.48 313.477 1272 379.953 1272 461.954C1272 543.956 1338.48 610.431 1420.48 610.431L1509.56 610.431C1509.56 667.832 1556.1 714.365 1613.5 714.365H2296.49C2337.95 714.365 2373.74 690.088 2390.42 654.974H2998.05C3080.05 654.974 3146.52 588.499 3146.52 506.497C3146.52 424.496 3080.05 358.02 2998.05 358.02H2939.28C2943.7 343.959 2946.08 328.996 2946.08 313.477C2946.08 231.475 2879.6 165 2797.6 165H1691.45Z" fill="white" fill-opacity="0.1"/>
<path fill-rule="evenodd" clip-rule="evenodd" d="M1679.5 0C1663.18 0 1649.94 13.2337 1649.94 29.5582V29.5582H1625.56C1609.23 29.5582 1596 42.7919 1596 59.1164C1596 75.441 1609.23 88.6746 1625.56 88.6746H1643.29C1643.29 100.102 1652.56 109.365 1663.98 109.365H1799.95C1808.21 109.365 1815.33 104.532 1818.65 97.542H1939.61C1955.94 97.542 1969.17 84.3083 1969.17 67.9838C1969.17 51.6593 1955.94 38.4256 1939.61 38.4256H1927.92C1928.79 35.6263 1929.27 32.6476 1929.27 29.5582C1929.27 13.2337 1916.04 0 1899.71 0H1679.5Z" fill="white" fill-opacity="0.1"/>
<path fill-rule="evenodd" clip-rule="evenodd" d="M109.927 77C91.173 77 75.9703 92.2028 75.9703 110.956L47.9563 110.956C29.2028 110.956 14 126.159 14 144.913C14 163.666 29.2027 178.869 47.9563 178.869L68.3302 178.869C68.3302 191.996 78.9721 202.638 92.0996 202.638H248.299C257.781 202.638 265.966 197.086 269.781 189.056H408.742C427.496 189.056 442.699 173.853 442.699 155.1C442.699 136.346 427.496 121.143 408.742 121.143H395.303C396.313 117.927 396.858 114.505 396.858 110.956C396.858 92.2028 381.655 77 362.901 77H109.927Z" fill="white" fill-opacity="0.1"/>
<g filter="url(#filter0_d_2_2)">
<circle cx="228" cy="165" r="67" fill="#F4FFFE"/>
</g>
<path fill-rule="evenodd" clip-rule="evenodd" d="M-512.078 714C-563.674 714 -605.502 755.827 -605.502 807.424L-682.576 807.424C-734.173 807.424 -776 849.251 -776 900.848C-776 952.444 -734.173 994.271 -682.576 994.271L-626.522 994.271C-626.522 1030.39 -597.243 1059.67 -561.125 1059.67H-131.376C-105.288 1059.67 -82.7684 1044.39 -72.2727 1022.3H310.051C361.648 1022.3 403.475 980.471 403.475 928.875C403.475 877.278 361.648 835.451 310.051 835.451H273.076C275.855 826.603 277.353 817.188 277.353 807.424C277.353 755.827 235.526 714 183.929 714H-512.078Z" fill="url(#paint1_linear_2_2)" fill-opacity="0.1"/>
<defs>
<filter id="filter0_d_2_2" x="11" y="-52" width="434" height="434" filterUnits="userSpaceOnUse" color-interpolation-filters="sRGB">
<feFlood flood-opacity="0" result="BackgroundImageFix"/>
<feColorMatrix in="SourceAlpha" type="matrix" values="0 0 0 0 0 0 0 0 0 0 0 0 0 0 0 0 0 0 127 0" result="hardAlpha"/>
<feOffset/>
<feGaussianBlur stdDeviation="75"/>
<feComposite in2="hardAlpha" operator="out"/>
<feColorMatrix type="matrix" values="0 0 0 0 0.00833338 0 0 0 0 1 0 0 0 0 0.9405 0 0 0 0.5 0"/>
<feBlend mode="normal" in2="BackgroundImageFix" result="effect1_dropShadow_2_2"/>
<feBlend mode="normal" in="SourceGraphic" in2="effect1_dropShadow_2_2" result="shape"/>
</filter>
<linearGradient id="paint0_linear_2_2" x1="960" y1="0" x2="960" y2="1080" gradientUnits="userSpaceOnUse">
<stop offset="0.197907" stop-color="#001048"/>
<stop offset="1"/>
</linearGradient>
<linearGradient id="paint1_linear_2_2" x1="-186.263" y1="714" x2="-186.263" y2="1059.67" gradientUnits="userSpaceOnUse">
<stop stop-color="white"/>
<stop offset="1" stop-color="white" stop-opacity="0"/>
</linearGradient>
</defs>
</svg>
